<svg width="400" height="400" viewBox="0 0 400 400" fill="none" xmlns="http://www.w3.org/2000/svg">
<path d="M175 191.66C179.6 191.66 183.33 187.931 183.33 183.33C183.33 178.73 179.6 175 175 175C170.4 175 166.67 178.73 166.67 183.33C166.67 187.931 170.4 191.66 175 191.66Z" fill="#ACACAC"/>
<path d="M216.66 241.66C216.66 232.459 209.201 225 200 225C190.799 225 183.34 232.459 183.34 241.66H166.68C166.68 223.258 181.598 208.34 200 208.34C218.402 208.34 233.32 223.258 233.32 241.66H216.66Z" fill="#ACACAC"/>
<path d="M233.33 183.33C233.33 187.931 229.601 191.66 225 191.66C220.399 191.66 216.67 187.931 216.67 183.33C216.67 178.73 220.399 175 225 175C229.601 175 233.33 178.73 233.33 183.33Z" fill="#ACACAC"/>
<path fill-rule="evenodd" clip-rule="evenodd" d="M283.3 200C283.3 246.005 246.005 283.3 200 283.3C153.995 283.3 116.7 246.005 116.7 200C116.7 153.995 153.995 116.7 200 116.7C246.005 116.7 283.3 153.995 283.3 200ZM266.64 200C266.64 236.804 236.804 266.64 200 266.64C163.196 266.64 133.36 236.804 133.36 200C133.36 163.196 163.196 133.36 200 133.36C236.804 133.36 266.64 163.196 266.64 200Z" fill="#ACACAC"/>
</svg>
