<svg width="56" height="56" viewBox="0 0 56 56" fill="none" xmlns="http://www.w3.org/2000/svg">
<path d="M28 41.125C20.7629 41.125 14.875 35.2371 14.875 28C14.875 24.8097 16.0326 21.735 18.1361 19.3419C18.2963 19.1607 18.5728 19.1441 18.7539 19.3025C18.935 19.4618 18.9525 19.7391 18.7941 19.9202C16.8306 22.1524 15.75 25.0224 15.75 28C15.75 34.755 21.245 40.25 28 40.25C34.755 40.25 40.25 34.755 40.25 28C40.25 21.245 34.755 15.75 28 15.75C25.809 15.75 23.66 16.3345 21.7849 17.4414C21.5793 17.5612 21.3098 17.4948 21.1864 17.2865C21.063 17.0791 21.1321 16.8105 21.3413 16.6871C23.3503 15.5015 25.6524 14.875 28 14.875C35.2371 14.875 41.125 20.7629 41.125 28C41.125 35.2371 35.2371 41.125 28 41.125Z" fill="#AEAEAE"/>
<path d="M28 38.9375C21.9686 38.9375 17.0625 34.0314 17.0625 28C17.0625 21.9686 21.9686 17.0625 28 17.0625C34.0314 17.0625 38.9375 21.9686 38.9375 28C38.9375 34.0314 34.0314 38.9375 28 38.9375ZM28 17.9375C22.4516 17.9375 17.9375 22.4516 17.9375 28C17.9375 33.5484 22.4516 38.0625 28 38.0625C33.5484 38.0625 38.0625 33.5484 38.0625 28C38.0625 22.4516 33.5484 17.9375 28 17.9375Z" fill="#AEAEAE"/>
<path d="M32.1552 21.2405C32.0414 21.2405 31.9277 21.1968 31.8481 21.118C31.7606 21.0305 31.7177 20.9168 31.7177 20.803C31.7177 20.6893 31.7614 20.5755 31.8481 20.4968C32.0143 20.3305 32.3039 20.3305 32.4606 20.4968C32.5489 20.5755 32.5918 20.6893 32.5918 20.803C32.5918 20.9168 32.5489 21.0305 32.4614 21.1093C32.3827 21.1968 32.2689 21.2405 32.1552 21.2405Z" fill="#AEAEAE"/>
<path d="M23.8434 35.6399C23.7296 35.6399 23.6159 35.5874 23.5363 35.5096C23.4488 35.4212 23.4059 35.3083 23.4059 35.2024C23.4059 35.0887 23.4496 34.9749 23.5284 34.8883C23.6946 34.7299 23.9921 34.7299 24.1496 34.8883C24.238 34.9758 24.2809 35.0887 24.2809 35.2024C24.2809 35.3074 24.2371 35.4212 24.1575 35.5096C24.0709 35.5883 23.9571 35.6399 23.8434 35.6399Z" fill="#AEAEAE"/>
<path d="M35.1993 24.2821C35.0856 24.2821 34.9718 24.2384 34.8931 24.1587C34.8056 24.0712 34.7618 23.9584 34.7618 23.8446C34.7618 23.7309 34.8065 23.6171 34.8852 23.5375C35.0593 23.3634 35.3481 23.3721 35.5065 23.5375C35.5852 23.6171 35.6368 23.7309 35.6368 23.8446C35.6368 23.9584 35.5931 24.0721 35.5065 24.1509C35.4277 24.2384 35.3131 24.2821 35.1993 24.2821Z" fill="#AEAEAE"/>
<path d="M20.7998 32.5956C20.6861 32.5956 20.5811 32.5518 20.4936 32.4722C20.4052 32.3768 20.3623 32.2631 20.3623 32.1581C20.3623 32.0443 20.4061 31.9393 20.4857 31.851C20.6782 31.6768 20.9486 31.6856 21.1157 31.851C21.1944 31.9306 21.2382 32.0443 21.2382 32.1581C21.2382 32.2718 21.1944 32.3856 21.1157 32.4643C21.0273 32.5518 20.9223 32.5956 20.7998 32.5956Z" fill="#AEAEAE"/>
<path d="M36.3132 28.4401C36.1995 28.4401 36.0857 28.3963 36.0061 28.3088C35.9195 28.2301 35.8757 28.1163 35.8757 28.0026C35.8757 27.8888 35.9195 27.7751 36.0061 27.6955C36.1645 27.5301 36.4532 27.5301 36.6186 27.6867C36.707 27.7751 36.7507 27.8888 36.7507 28.0026C36.7507 28.1163 36.707 28.2301 36.6273 28.3088C36.5407 28.3963 36.427 28.4401 36.3132 28.4401Z" fill="#AEAEAE"/>
<path d="M19.6882 28.4401C19.5745 28.4401 19.4607 28.3963 19.3811 28.3088C19.2945 28.2301 19.2507 28.1163 19.2507 28.0026C19.2507 27.8888 19.2945 27.7751 19.3811 27.6955C19.5395 27.5301 19.8282 27.5301 19.9936 27.6867C20.082 27.7751 20.1257 27.8888 20.1257 28.0026C20.1257 28.1163 20.082 28.2301 20.0023 28.3088C19.9157 28.3963 19.802 28.4401 19.6882 28.4401Z" fill="#AEAEAE"/>
<path d="M35.1993 32.5956C35.0856 32.5956 34.9718 32.5518 34.8852 32.4722C34.8065 32.3847 34.7618 32.2718 34.7618 32.1581C34.7618 32.0443 34.8065 31.9306 34.8852 31.851C35.0593 31.6768 35.3481 31.6856 35.5065 31.851C35.5852 31.9306 35.6368 32.0443 35.6368 32.1581C35.6368 32.2718 35.5931 32.3856 35.5065 32.4643C35.4277 32.5518 35.3131 32.5956 35.1993 32.5956Z" fill="#AEAEAE"/>
<path d="M20.7998 24.2821C20.6861 24.2821 20.5811 24.2384 20.4936 24.1587C20.4052 24.0634 20.3623 23.9496 20.3623 23.8446C20.3623 23.7309 20.4061 23.6259 20.4857 23.5375C20.6782 23.3634 20.9486 23.3721 21.1157 23.5375C21.1944 23.6171 21.2382 23.7309 21.2382 23.8446C21.2382 23.9584 21.1944 24.0721 21.1157 24.1509C21.0273 24.2384 20.9127 24.2821 20.7998 24.2821Z" fill="#AEAEAE"/>
<path d="M32.1566 35.638C32.0429 35.638 31.9291 35.5943 31.8495 35.5155C31.762 35.4193 31.7191 35.3143 31.7191 35.2005C31.7191 35.0868 31.7629 34.973 31.8416 34.8864C32.0166 34.7202 32.2975 34.728 32.4629 34.8864C32.5512 34.9739 32.5941 35.0868 32.5941 35.2005C32.5941 35.3055 32.5504 35.4193 32.4707 35.5076C32.3841 35.5951 32.2704 35.638 32.1566 35.638Z" fill="#AEAEAE"/>
<path d="M23.8434 21.2387C23.7296 21.2387 23.6159 21.1949 23.5363 21.1083C23.4496 21.0287 23.4059 20.9141 23.4059 20.8012C23.4059 20.6883 23.4496 20.5737 23.5363 20.4949C23.6946 20.3287 23.9834 20.3287 24.1488 20.4862C24.2371 20.5737 24.28 20.6866 24.28 20.8003C24.28 20.9141 24.2371 21.0287 24.1496 21.1074C24.0621 21.1949 23.9571 21.2387 23.8434 21.2387Z" fill="#AEAEAE"/>
<path d="M28 36.7518C27.8863 36.7518 27.7813 36.7081 27.6929 36.6285C27.6063 36.5331 27.5625 36.4281 27.5625 36.3143C27.5625 36.2006 27.6063 36.0868 27.685 36.0072C27.8688 35.8331 28.1488 35.8418 28.3063 36.0072C28.3938 36.0868 28.4375 36.2006 28.4375 36.3143C28.4375 36.4281 28.3938 36.5418 28.3063 36.6206C28.2275 36.7081 28.1137 36.7518 28 36.7518Z" fill="#AEAEAE"/>
<path d="M28 20.1268C27.8863 20.1268 27.7813 20.0831 27.6929 20.0035C27.6063 19.9168 27.5625 19.8031 27.5625 19.6893C27.5625 19.566 27.6063 19.4618 27.685 19.3822C27.8688 19.2081 28.1488 19.2168 28.3063 19.3822C28.3938 19.4618 28.4375 19.5756 28.4375 19.6893C28.4375 19.8031 28.3937 19.9168 28.3141 19.9956C28.2275 20.0831 28.1137 20.1268 28 20.1268Z" fill="#AEAEAE"/>
<path d="M33.5664 22.4336C33.3958 22.263 33.1184 22.263 32.9478 22.4336L28.2114 27.17C28.5185 27.2496 28.7504 27.4815 28.83 27.7886L33.5664 23.0523C33.7379 22.8808 33.7379 22.6043 33.5664 22.4336Z" fill="#AEAEAE"/>
<path d="M27.7854 27.1666L22.4304 21.8116C22.2598 21.6409 21.9824 21.6409 21.8118 21.8116C21.6412 21.9822 21.6412 22.2596 21.8118 22.4302L27.1668 27.7852C27.2464 27.4781 27.4783 27.2462 27.7854 27.1666Z" fill="#AEAEAE"/>
<path d="M28 29.3125C27.2764 29.3125 26.6875 28.7236 26.6875 28C26.6875 27.2764 27.2764 26.6875 28 26.6875C28.7236 26.6875 29.3125 27.2764 29.3125 28C29.3125 28.7236 28.7236 29.3125 28 29.3125ZM28 27.5625C27.7594 27.5625 27.5625 27.7594 27.5625 28C27.5625 28.2406 27.7594 28.4375 28 28.4375C28.2406 28.4375 28.4375 28.2406 28.4375 28C28.4375 27.7594 28.2406 27.5625 28 27.5625Z" fill="#AEAEAE"/>
<path d="M20.5625 17.9385C20.5625 18.1791 20.3656 18.376 20.125 18.376C19.8844 18.376 19.6875 18.1791 19.6875 17.9385C19.6875 17.6979 19.8844 17.501 20.125 17.501C20.3656 17.501 20.5625 17.6979 20.5625 17.9385Z" fill="#AEAEAE"/>
</svg>
