<svg width="56" height="56" viewBox="0 0 56 56" fill="none" xmlns="http://www.w3.org/2000/svg">
<path d="M37.3261 26.8296H39.6585C39.6585 20.847 35.1418 16.335 29.151 16.335V18.6674C33.8881 18.6674 37.3261 22.0995 37.3261 26.8296Z" fill="#AEAEAE"/>
<path d="M29.162 23.3385C31.6145 23.3385 32.6606 24.3846 32.6606 26.8371H34.993C34.993 23.0761 32.923 21.0061 29.162 21.0061V23.3385ZM33.1527 29.6862C32.9286 29.4825 32.6341 29.3739 32.3315 29.3832C32.0288 29.3926 31.7416 29.5192 31.5305 29.7363L28.7398 32.6063C28.0681 32.478 26.7176 32.057 25.3275 30.6704C23.9374 29.2792 23.5164 27.9252 23.3916 27.2581L26.2593 24.4662C26.4767 24.2553 26.6035 23.9681 26.6128 23.6653C26.6222 23.3625 26.5134 23.068 26.3094 22.8441L22.0003 18.1058C21.7963 17.8811 21.5127 17.7449 21.2098 17.7259C20.9069 17.707 20.6086 17.8068 20.3781 18.0043L17.8475 20.1746C17.6459 20.377 17.5255 20.6463 17.5093 20.9315C17.4918 21.223 17.1583 28.1293 22.5135 33.4868C27.1853 38.1574 33.0372 38.4991 34.6489 38.4991C34.8845 38.4991 35.0291 38.4921 35.0676 38.4898C35.3528 38.4738 35.6219 38.353 35.8233 38.1504L37.9924 35.6186C38.1901 35.3883 38.2901 35.0901 38.2714 34.7872C38.2527 34.4843 38.1166 34.2006 37.8921 33.9964L33.1527 29.6862Z" fill="#AEAEAE"/>
</svg>
